<?xml version="1.0" encoding="UTF-8" standalone="no"?><!DOCTYPE svg PUBLIC "-//W3C//DTD SVG 1.1//EN" "http://www.w3.org/Graphics/SVG/1.1/DTD/svg11.dtd"><svg width="100%" height="100%" viewBox="0 0 1185 590" version="1.1" xmlns="http://www.w3.org/2000/svg" xmlns:xlink="http://www.w3.org/1999/xlink" xml:space="preserve" xmlns:serif="http://www.serif.com/" style="fill-rule:evenodd;clip-rule:evenodd;stroke-linejoin:round;stroke-miterlimit:2;"><rect id="Logo-Preta" serif:id="Logo Preta" x="0.532" y="0" width="1184.39" height="589.054" style="fill:none;"/><g><g><g><path d="M46.018,515.873l-0,-16.889l24.766,-0c14.259,-0 19.606,7.411 19.606,15.572c-0,6.567 -3.377,12.758 -12.758,13.415l-0,1.501c10.975,0.656 14.634,6.754 14.634,15.009c-0,9.569 -4.691,18.293 -21.482,18.293l-24.766,0l-0,-39.689l11.974,-0l-11.974,-0l-0,-7.212l12.195,0l0,7.501l12.101,0c5.629,0 7.88,-1.407 7.88,-6.848c0,-4.878 -2.251,-6.285 -7.88,-6.285l-12.101,-0l0,5.632l-12.195,0Zm24.766,34.706c6.566,-0 9.287,-1.407 9.287,-7.786c-0,-6.755 -2.721,-8.162 -9.287,-8.162l-12.571,0l0,15.948l12.571,-0Z"/><path d="M166.094,510.241l0,-11.257l-42.027,-0l0,63.79l42.027,0l0,-11.257l-29.831,0l-0,-15.479l23.264,0l0,-11.257l-23.264,0l-0,-14.54l29.831,-0Z" style="fill-rule:nonzero;"/><path d="M241.798,562.774l12.946,0l-19.419,-63.79l-18.855,-0l-19.513,63.79l13.04,0l3.752,-12.664l24.297,-0l3.752,12.664Zm-24.765,-23.921l8.067,-27.58l1.501,-0l8.162,27.58l-17.73,-0Z" style="fill-rule:nonzero;"/><path d="M338.422,540.26l0,-41.276l-12.195,-0l-0,39.4c-0,9.85 -2.908,14.071 -14.916,14.071c-12.007,0 -14.916,-4.221 -14.916,-14.071l0,-39.4l-12.195,-0l0,41.276c0,16.604 10.507,23.452 27.111,23.452c16.604,0 27.111,-6.848 27.111,-23.452Z" style="fill-rule:nonzero;"/><path d="M418.348,498.984l-48.594,-0l0,11.257l18.2,-0l-0,52.533l12.195,0l-0,-52.533l18.199,-0l-0,-11.257Z" style="fill-rule:nonzero;"/><rect x="448.742" y="498.984" width="12.195" height="63.79" style="fill-rule:nonzero;"/><path d="M536.173,510.241l-0,-11.257l-42.027,-0l-0,63.79l42.027,0l-0,-11.257l-29.832,0l0,-15.479l23.265,0l-0,-11.257l-23.265,0l0,-14.54l29.832,-0Z" style="fill-rule:nonzero;"/><path d="M648.463,498.984l-22.421,-0l0,63.79l22.421,0c21.201,0 30.019,-10.882 30.019,-31.895c-0,-21.107 -8.818,-31.895 -30.019,-31.895Zm-0,52.533l-10.226,0l0,-41.276l10.226,-0c14.634,-0 17.823,5.159 17.823,20.638c0,15.103 -3.189,20.638 -17.823,20.638Z" style="fill-rule:nonzero;"/><path d="M707.563,498.046l-0,11.257l3.752,-0l-3.283,12.195l6.66,-0l5.066,-12.195l-0,-11.257l-12.195,-0Z" style="fill-rule:nonzero;"/><path d="M800.434,555.363c6.473,4.972 19.419,8.349 28.424,8.349c14.916,0 25.423,-5.534 25.423,-19.512c-0,-12.946 -8.162,-15.76 -26.267,-19.888c-9.569,-2.251 -14.447,-3.846 -14.447,-8.443c0,-5.347 4.597,-6.566 10.695,-6.566c6.003,-0 15.572,2.064 24.953,5.441l-0,-11.351c-6.285,-3.096 -16.135,-5.347 -23.734,-5.347c-14.54,-0 -24.109,5.347 -24.109,18.48c0,10.413 6.379,14.822 23.359,18.668c12.101,2.814 17.354,4.315 17.354,9.756c0,6.192 -4.878,7.505 -13.227,7.505c-8.443,0 -19.606,-3.189 -28.424,-9.193l0,12.101Z" style="fill-rule:nonzero;"/><path d="M927.64,498.984l-48.594,-0l0,11.257l18.199,-0l0,52.533l12.196,0l-0,-52.533l18.199,-0l-0,-11.257Z" style="fill-rule:nonzero;"/><path d="M991.149,562.774l12.945,0l-19.418,-63.79l-18.856,-0l-19.512,63.79l13.039,0l3.753,-12.664l24.296,-0l3.753,12.664Zm-24.766,-23.921l8.068,-27.58l1.501,-0l8.161,27.58l-17.73,-0Z" style="fill-rule:nonzero;"/><path d="M1064.51,537.446l-0,-1.501c13.133,-0.563 18.199,-6.473 18.199,-16.792c-0,-11.539 -6.004,-20.169 -26.267,-20.169l-22.42,-0l-0,63.79l12.195,0l-0,-19.981l25.235,-0l-0,19.981l12.195,0l-0,-25.328l-19.137,-0Zm-18.293,-5.91l-0,-21.295l10.225,-0c10.882,-0 14.072,2.533 14.072,10.788c-0,7.974 -3.19,10.507 -14.072,10.507l-10.225,-0Z" style="fill-rule:nonzero;"/></g><path d="M392.827,196.357c2.798,-0.042 5.644,-0.063 8.545,-0.063c33.121,-0 61.323,2.591 92.476,8.194l5.247,0.984l7.871,-4.618c28.53,-17.022 53.453,-30.468 94.772,-51.129c65.914,-32.796 121.335,-57.392 139.043,-61.327c5.247,-1.312 11.806,-1.64 11.806,-0.656c-0,-0 -0.656,0.656 -1.312,0.984l-1.312,0.655l1.312,0.984c0.656,0.328 1.312,0.984 1.312,0.984c-0,0.656 -1.968,2.296 -9.51,7.871c-44.271,33.451 -85.263,71.493 -126.582,117.71c-6.559,7.556 -11.478,13.47 -11.478,13.799c0.984,0.646 29.842,6.536 43.287,8.524c14.757,2.298 19.676,2.626 36.729,2.626c14.429,0 16.396,0 22.299,-0.985c2.138,-0.332 4.372,-0.743 6.669,-1.222c4.402,-3.056 8.849,-6.051 13.334,-8.976c32.467,-21.649 59.031,-35.426 82.644,-42.96c10.166,-3.254 13.774,-3.904 20.661,-3.904c5.247,-0 6.559,-0 8.198,0.65c3.936,1.302 4.92,4.23 3.608,7.508c-1.968,4.264 -9.839,13.121 -19.349,21.649c-4.92,4.264 -19.677,15.417 -30.828,23.617c-29.515,20.993 -71.165,44.281 -106.912,59.042c-11.806,4.92 -23.94,8.856 -26.892,8.2c-1.312,-0.328 -1.64,0 -7.543,5.576c-22.301,20.993 -39.354,40.674 -51.488,59.043c-6.887,10.496 -9.839,16.728 -12.135,23.288c-2.621,8.201 -2.947,14.761 -0.328,17.713c1.312,1.309 1.64,1.309 3.28,0.984c6.887,-0.984 14.758,-3.936 27.876,-10.496c10.166,-5.248 15.742,-8.529 36.73,-20.993c23.285,-13.777 31.484,-19.025 51.489,-32.473c3.362,-2.312 6.321,-4.086 8.617,-5.148c1.948,-1.781 3.988,-3.555 6.156,-5.361c7.547,-6.234 11.157,-8.859 16.079,-11.155c3.61,-1.64 3.938,-1.969 7.875,-1.969c3.282,0 3.938,0 5.25,0.657c0.985,0.656 1.313,1.312 1.313,1.968c0,0.984 -2.625,3.937 -8.86,9.514c-6.562,5.25 -19.032,18.045 -25.266,24.934c-10.501,12.139 -20.673,27.887 -23.626,36.089c-0.982,2.952 -0.982,6.889 -0.328,8.53c0.328,0.984 0.656,0.984 1.969,0.984c2.625,-0.656 7.219,-2.625 16.078,-7.218c13.126,-7.218 53.159,-31.167 78.371,-47.571c3.451,-2.219 6.3,-3.975 8.651,-5.338c4.375,-6.333 9.394,-12.647 12.671,-15.671c3.61,-3.607 11.157,-9.511 15.423,-12.462c3.609,-2.62 12.141,-6.539 16.735,-8.173c8.203,-2.939 17.063,-4.248 24.282,-3.592c10.475,0.979 14.72,4.246 14.72,10.781c0,4.919 -1.633,7.543 -12.095,20.005c-4.922,5.903 -7.547,7.543 -9.844,6.231c-0.656,-0.656 -0,-1.64 3.609,-5.247l4.923,-5.903c1.968,-3.28 3.937,-8.855 3.937,-11.151c0,-1.967 -0.984,-3.935 -2.297,-4.918c-0.984,-0.326 -1.64,-0.326 -3.937,0.327c-11.157,3.28 -29.533,14.43 -42.002,25.908c-7.219,6.559 -14.766,16.398 -19.36,26.236c-6.557,12.791 -6.23,23.285 0.328,26.892c2.297,1.312 11.813,0.328 20.345,-1.639c7.219,-1.968 19.688,-7.215 28.219,-12.462l10.501,-5.904c5.906,-3.279 20.297,-12.134 40.63,-24.924c1.103,-0.613 2.39,-1.363 3.671,-2.149c2.322,-2.659 4.663,-5.185 6.828,-7.358c4.266,-3.908 13.454,-10.798 20.345,-15.399c12.141,-8.217 26.907,-14.083 36.423,-14.735c7.545,-0.984 14.077,0.326 16.037,2.933c2.291,2.933 -0.327,9.172 -5.552,14.76c-8.516,8.533 -24.595,18.038 -37.392,22.314c-5.579,1.947 -13.782,3.569 -17.063,3.569c-1.313,0 -2.625,1.325 -11.157,10.93c-6.235,7.617 -9.516,12.254 -10.829,17.221c-0.981,2.981 -0.327,5.299 1.641,7.287c3.938,3.619 14.438,2.968 31.173,-2.65c9.516,-3.312 16.407,-6.293 23.954,-9.936c8.076,-4.828 16.213,-9.129 24.333,-12.951c16.122,-7.588 32.178,-13.29 47.557,-17.494c46.381,-12.679 86.604,-11.733 103.897,-7.81c8.201,1.632 14.433,4.924 20.666,9.863c6.194,5.216 8.813,10.177 6.845,13.82c-0.651,1.325 -3.583,2.981 -5.212,2.981c-0.978,-0.331 -0.978,-0.331 -0.978,-2.981c0.326,-3.312 -0.327,-4.968 -2.951,-7.948c-3.281,-3.577 -10.825,-8.835 -16.402,-10.481c-7.873,-2.634 -20.666,-4.28 -33.459,-4.28c-20.994,-0 -43.629,3.621 -72.167,11.184c-7.976,2.21 -26.363,7.349 -46.709,16.75c-15.634,7.224 -33.656,18.81 -41.499,22.264c-5.906,2.637 -13.781,4.914 -19.688,6.215c-4.922,0.978 -16.078,1.306 -20.016,0.65c-8.18,-1.301 -14.721,-5.54 -16.029,-11.171c-1.64,-5.299 -0,-12.585 3.924,-19.54c1.254,-2.221 3.041,-4.871 5.129,-7.686c-3.818,2.419 -8.426,5.337 -14.014,8.882c-7.528,4.919 -16.686,10.494 -19.967,12.79c-19.689,12.134 -34.127,18.365 -49.549,20.661c-4.266,0.656 -12.797,0.983 -16.079,0.328c-20.017,-3.502 -22.766,-21.839 -7.633,-47.209c-10.719,7.175 -27.371,17.727 -42.839,27.235l-19.032,11.483c-17.392,10.826 -23.626,14.1 -30.517,16.696c-3.938,1.305 -10.817,1.633 -14.087,0.649c-2.943,-0.973 -4.251,-1.947 -5.559,-3.894c-5.242,-7.546 0.654,-24.934 14.724,-43.306c2.322,-3.095 4.586,-5.934 6.878,-8.608c-10.377,7.444 -20.581,14.017 -44.266,28.296l-17.709,10.824c-19.35,11.809 -28.204,16.401 -38.043,19.988c-6.887,2.275 -15.086,3.259 -19.343,2.275c-3.92,-0.975 -6.533,-2.925 -8.166,-6.19c-1.31,-2.624 -1.638,-8.528 -0.654,-13.448c1.96,-10.497 9.474,-25.585 19.636,-40.674c9.839,-14.432 20.661,-27.881 32.468,-40.673c23.046,-24.972 51.371,-49.713 82.095,-71.537c-1.916,0.271 -3.812,0.502 -5.68,0.689c-25.251,2.61 -54.109,0 -92.805,-8.532c-3.935,-0.989 -7.542,-1.648 -7.87,-1.648c-1.64,0 -26.563,32.472 -44.271,58.058c-33.449,48.548 -73.559,123.193 -73.559,123.193c-7.761,18.911 -38.84,22.58 -26.964,1.521c0,0 64.45,-115.201 87.406,-148.988c9.51,-14.105 22.955,-32.795 28.202,-39.323c0.656,-0.658 0.984,-1.315 0.984,-1.643c-0.984,-0.986 -60.996,-15.117 -65.915,-15.774l-2.295,-0l-18.364,11.501c-17.709,11.132 -33.777,21.312 -58.7,37.366c-24.923,16.074 -65.259,41.004 -81.983,51.173c-28.109,16.996 -51.118,30.233 -74.608,42.804c-0.913,-2.525 -1.791,-4.919 -2.611,-7.129c10.296,-5.568 20.168,-11.015 29.669,-16.322c28.53,-16.729 105.594,-64.293 146.585,-90.824c13.445,-8.865 38.696,-24.955 44.599,-28.566c1.968,-1.314 3.607,-2.299 3.279,-2.627c-0.328,-0.323 -19.348,-3.571 -30.497,-4.916c-23.593,-2.937 -47.595,-4.083 -70.862,-3.473c0.005,-1.051 0.008,-2.153 0.01,-3.313Zm189.563,21.222c18.364,-21.285 45.582,-46.538 80.999,-75.069c21.316,-17.054 32.793,-25.909 48.206,-36.403c2.951,-1.968 5.575,-3.608 5.247,-3.608c-0.328,0 -17.052,7.215 -27.218,11.807c-39.68,18.365 -93.133,44.929 -121.007,60.343c-13.773,7.543 -36.401,20.661 -47.55,27.19l-10.166,5.93l3.607,0.981c10.822,2.261 32.793,7.515 46.238,10.799c8.527,2.299 15.741,3.941 16.069,3.941c0.328,-0 2.624,-2.627 5.575,-5.911Zm350.257,131.864l-1.312,1.313l1.312,-0.325c0.985,0 3.282,-0.658 5.579,-1.317c5.578,-1.317 12.469,-4.28 19.688,-7.901c14.11,-7.184 23.618,-17.044 21.985,-22.96l-0.328,-0.986l-2.625,0.986c-5.25,1.972 -15.751,8.217 -24.939,15.119c-3.937,2.954 -12.797,10.474 -19.36,16.071Zm-179.429,-118.674c-29.902,19.931 -62.318,44.457 -92.457,70.121c-1.64,1.312 14.102,-3.936 23.94,-8.2c12.79,-5.576 30.172,-13.449 41.978,-19.681c16.398,-8.2 28.532,-15.416 46.241,-27.225c20.661,-13.776 31.156,-21.649 42.306,-31.817c13.446,-12.136 19.677,-20.337 18.693,-23.945c0,-1.31 -0.328,-1.31 -2.295,-0.984c-4.264,0.656 -16.07,5.248 -27.548,11.153c-7.568,3.938 -15.631,8.488 -24.059,13.554c-0.07,0.076 -0.14,0.153 -0.212,0.231c-5.247,4.924 -10.494,8.863 -18.036,12.802c-2.716,1.386 -5.578,2.72 -8.551,3.991Z"/></g><path d="M193.847,179.281c-11.995,14.302 -24.93,22.105 -23.081,23.119c7.893,4.327 15.195,12.474 22.49,19.397c4.285,-5.62 11.624,-13.803 22.442,-20.857c-12.248,-8.696 -16.35,-16.883 -21.851,-21.659Zm13.602,-153.939c2.771,53.513 -28.35,135.678 -119.919,172.309c31.732,13.103 58.361,37.214 80.182,63.44c3.894,-5.761 10.22,-15.123 13.995,-20.711c-7.368,-7.409 -11.416,-11.083 -19.1,-17.909c-7.721,-6.859 -16.192,-12.872 -25.376,-20.074c40.64,-26.238 63.331,-62.508 82.258,-107.649c2.229,3.263 3.703,5.441 5.197,7.604c17.153,24.844 36.415,47.677 62.196,64.11c23.863,15.21 51.122,27.618 79.334,28.435c1.995,0.058 28.92,1.285 30.912,1.412c0.337,0.022 0.522,3.26 0.522,3.26c-0.989,0.056 -26.97,0.332 -27.949,0.399c-114.405,7.844 -161.463,94.397 -168.966,143.65l-18.428,36.657c4.082,-83.899 43.475,-143.207 121.274,-177.739c-31.826,-12.992 -58.507,-31.875 -80.391,-58.165c-3.922,5.837 -7.531,11.21 -11.347,16.89c13.391,16.126 21.077,28.823 38.989,41.718c-40.901,26.398 -60.492,62.753 -79.367,107.731c-4.905,-7.101 -9.1,-13.145 -13.265,-19.208c-33.181,-48.304 -79.115,-88.248 -137.605,-90.641c-0.707,-0.028 -1.409,-0.164 -2.575,-0.307l-0,-2.903c45.166,-0.975 171.681,-45.464 174.613,-149.517" style="fill-rule:nonzero;"/></g></svg>