<?xml version="1.0" encoding="UTF-8" standalone="no"?><!DOCTYPE svg PUBLIC "-//W3C//DTD SVG 1.1//EN" "http://www.w3.org/Graphics/SVG/1.1/DTD/svg11.dtd"><svg width="100%" height="100%" viewBox="0 0 1640 989" version="1.1" xmlns="http://www.w3.org/2000/svg" xmlns:xlink="http://www.w3.org/1999/xlink" xml:space="preserve" xmlns:serif="http://www.serif.com/" style="fill-rule:evenodd;clip-rule:evenodd;stroke-linejoin:round;stroke-miterlimit:2;"><rect id="Padrão-de-rep-Preto" serif:id="Padrão de rep Preto" x="0" y="0.64" width="1639.45" height="988.043" style="fill:none;"/><clipPath id="_clip1"><rect x="0" y="0.64" width="1639.45" height="988.043"/></clipPath><g clip-path="url(#_clip1)"><path d="M90.856,109.22c-0,-6.806 -5.518,-12.323 -12.324,-12.323c6.806,-0 12.324,-5.518 12.324,-12.324c-0,6.806 5.517,12.324 12.323,12.324c-6.806,-0 -12.323,5.517 -12.323,12.323Z" style="fill-rule:nonzero;"/><path d="M90.856,305.73c-0,-14.716 -11.93,-26.645 -26.646,-26.645c14.716,-0 26.646,-11.93 26.646,-26.646c-0,14.716 11.929,26.646 26.645,26.646c-14.716,-0 -26.645,11.929 -26.645,26.645Z" style="fill-rule:nonzero;"/><path d="M90.856,502.239c-0,-22.625 -18.342,-40.967 -40.967,-40.967c22.625,0 40.967,-18.341 40.967,-40.967c-0,22.626 18.342,40.967 40.967,40.967c-22.625,0 -40.967,18.342 -40.967,40.967Z" style="fill-rule:nonzero;"/><path d="M90.856,698.749c-0,-30.536 -24.754,-55.289 -55.289,-55.289c30.535,-0 55.289,-24.754 55.289,-55.289c-0,30.535 24.754,55.289 55.289,55.289c-30.535,-0 -55.289,24.753 -55.289,55.289Z" style="fill-rule:nonzero;"/><path d="M90.856,895.258c-0,-38.445 -31.166,-69.611 -69.611,-69.611c38.445,0 69.611,-31.166 69.611,-69.611c-0,38.445 31.166,69.611 69.611,69.611c-38.445,0 -69.611,31.166 -69.611,69.611Z" style="fill-rule:nonzero;"/><path d="M181.95,993.513c-0,-42.4 -34.372,-76.772 -76.772,-76.772c42.4,-0 76.772,-34.372 76.772,-76.772c-0,42.4 34.372,76.772 76.772,76.772c-42.4,-0 -76.772,34.372 -76.772,76.772Z" style="fill-rule:nonzero;"/><path d="M273.044,895.258c-0,-38.445 -31.167,-69.611 -69.612,-69.611c38.445,0 69.612,-31.166 69.612,-69.611c-0,38.445 31.165,69.611 69.611,69.611c-38.446,0 -69.611,31.166 -69.611,69.611Z" style="fill-rule:nonzero;"/><path d="M181.95,797.004c-0,-34.491 -27.96,-62.451 -62.45,-62.451c34.49,0 62.45,-27.96 62.45,-62.45c-0,34.49 27.96,62.45 62.45,62.45c-34.49,0 -62.45,27.96 -62.45,62.451Z" style="fill-rule:nonzero;"/><path d="M273.044,698.749c-0,-30.536 -24.754,-55.289 -55.29,-55.289c30.536,-0 55.29,-24.754 55.29,-55.289c-0,30.535 24.753,55.289 55.289,55.289c-30.536,-0 -55.289,24.753 -55.289,55.289Z" style="fill-rule:nonzero;"/><path d="M181.95,600.494c-0,-26.58 -21.548,-48.128 -48.129,-48.128c26.581,0 48.129,-21.548 48.129,-48.128c-0,26.58 21.548,48.128 48.128,48.128c-26.58,0 -48.128,21.548 -48.128,48.128Z" style="fill-rule:nonzero;"/><path d="M273.044,502.239c-0,-22.625 -18.342,-40.967 -40.968,-40.967c22.626,0 40.968,-18.341 40.968,-40.967c-0,22.626 18.341,40.967 40.967,40.967c-22.626,0 -40.967,18.342 -40.967,40.967Z" style="fill-rule:nonzero;"/><path d="M181.95,403.984c-0,-18.67 -15.136,-33.806 -33.807,-33.806c18.671,0 33.807,-15.135 33.807,-33.806c-0,18.671 15.135,33.806 33.806,33.806c-18.671,0 -33.806,15.136 -33.806,33.806Z" style="fill-rule:nonzero;"/><path d="M273.044,305.73c-0,-14.716 -11.93,-26.645 -26.646,-26.645c14.716,-0 26.646,-11.93 26.646,-26.646c-0,14.716 11.929,26.646 26.645,26.646c-14.716,-0 -26.645,11.929 -26.645,26.645Z" style="fill-rule:nonzero;"/><path d="M181.95,207.475c-0,-10.761 -8.724,-19.484 -19.485,-19.484c10.761,-0 19.485,-8.724 19.485,-19.485c-0,10.761 8.723,19.485 19.484,19.485c-10.761,-0 -19.484,8.723 -19.484,19.484Z" style="fill-rule:nonzero;"/><path d="M273.044,109.22c-0,-6.806 -5.518,-12.323 -12.324,-12.323c6.806,-0 12.324,-5.518 12.324,-12.324c-0,6.806 5.517,12.324 12.323,12.324c-6.806,-0 -12.323,5.517 -12.323,12.323Z" style="fill-rule:nonzero;"/><path d="M181.95,10.965c-0,-2.851 -2.312,-5.162 -5.163,-5.162c2.851,-0 5.163,-2.311 5.163,-5.163c-0,2.852 2.311,5.163 5.162,5.163c-2.851,-0 -5.162,2.311 -5.162,5.162Z" style="fill-rule:nonzero;"/><path d="M364.137,993.513c0,-42.4 -34.372,-76.772 -76.771,-76.772c42.399,-0 76.771,-34.372 76.771,-76.772c0,42.4 34.372,76.772 76.772,76.772c-42.4,-0 -76.772,34.372 -76.772,76.772Z" style="fill-rule:nonzero;"/><path d="M455.231,895.258c0,-38.445 -31.166,-69.611 -69.611,-69.611c38.445,0 69.611,-31.166 69.611,-69.611c0,38.445 31.166,69.611 69.611,69.611c-38.445,0 -69.611,31.166 -69.611,69.611Z" style="fill-rule:nonzero;"/><path d="M364.137,797.004c0,-34.491 -27.959,-62.451 -62.45,-62.451c34.491,0 62.45,-27.96 62.45,-62.45c0,34.49 27.96,62.45 62.45,62.45c-34.49,0 -62.45,27.96 -62.45,62.451Z" style="fill-rule:nonzero;"/><path d="M455.231,698.749c0,-30.536 -24.753,-55.289 -55.289,-55.289c30.536,-0 55.289,-24.754 55.289,-55.289c0,30.535 24.754,55.289 55.289,55.289c-30.535,-0 -55.289,24.753 -55.289,55.289Z" style="fill-rule:nonzero;"/><path d="M364.137,600.494c0,-26.58 -21.547,-48.128 -48.128,-48.128c26.581,0 48.128,-21.548 48.128,-48.128c0,26.58 21.548,48.128 48.128,48.128c-26.58,0 -48.128,21.548 -48.128,48.128Z" style="fill-rule:nonzero;"/><path d="M455.231,502.239c0,-22.625 -18.341,-40.967 -40.967,-40.967c22.626,0 40.967,-18.341 40.967,-40.967c0,22.626 18.342,40.967 40.967,40.967c-22.625,0 -40.967,18.342 -40.967,40.967Z" style="fill-rule:nonzero;"/><path d="M364.137,403.984c0,-18.67 -15.135,-33.806 -33.806,-33.806c18.671,0 33.806,-15.135 33.806,-33.806c0,18.671 15.136,33.806 33.807,33.806c-18.671,0 -33.807,15.136 -33.807,33.806Z" style="fill-rule:nonzero;"/><path d="M455.231,305.73c0,-14.716 -11.929,-26.645 -26.645,-26.645c14.716,-0 26.645,-11.93 26.645,-26.646c0,14.716 11.93,26.646 26.646,26.646c-14.716,-0 -26.646,11.929 -26.646,26.645Z" style="fill-rule:nonzero;"/><path d="M364.137,207.475c0,-10.761 -8.723,-19.484 -19.484,-19.484c10.761,-0 19.484,-8.724 19.484,-19.485c0,10.761 8.724,19.485 19.485,19.485c-10.761,-0 -19.485,8.723 -19.485,19.484Z" style="fill-rule:nonzero;"/><path d="M455.231,109.22c0,-6.806 -5.517,-12.323 -12.323,-12.323c6.806,-0 12.323,-5.518 12.323,-12.324c0,6.806 5.518,12.324 12.324,12.324c-6.806,-0 -12.324,5.517 -12.324,12.323Z" style="fill-rule:nonzero;"/><path d="M364.137,10.965c0,-2.851 -2.311,-5.162 -5.162,-5.162c2.851,-0 5.162,-2.311 5.162,-5.163c0,2.852 2.312,5.163 5.163,5.163c-2.851,-0 -5.163,2.311 -5.163,5.162Z" style="fill-rule:nonzero;"/><path d="M546.325,993.513c0,-42.4 -34.372,-76.772 -76.772,-76.772c42.4,-0 76.772,-34.372 76.772,-76.772c0,42.4 34.372,76.772 76.772,76.772c-42.4,-0 -76.772,34.372 -76.772,76.772Z" style="fill-rule:nonzero;"/><path d="M637.419,895.258c0,-38.445 -31.166,-69.611 -69.611,-69.611c38.445,0 69.611,-31.166 69.611,-69.611c0,38.445 31.166,69.611 69.611,69.611c-38.445,0 -69.611,31.166 -69.611,69.611Z" style="fill-rule:nonzero;"/><path d="M546.325,797.004c0,-34.491 -27.96,-62.451 -62.45,-62.451c34.49,0 62.45,-27.96 62.45,-62.45c0,34.49 27.96,62.45 62.45,62.45c-34.49,0 -62.45,27.96 -62.45,62.451Z" style="fill-rule:nonzero;"/><path d="M637.419,698.749c0,-30.536 -24.754,-55.289 -55.289,-55.289c30.535,-0 55.289,-24.754 55.289,-55.289c0,30.535 24.754,55.289 55.289,55.289c-30.535,-0 -55.289,24.753 -55.289,55.289Z" style="fill-rule:nonzero;"/><path d="M546.325,600.494c0,-26.58 -21.548,-48.128 -48.128,-48.128c26.58,0 48.128,-21.548 48.128,-48.128c0,26.58 21.548,48.128 48.128,48.128c-26.58,0 -48.128,21.548 -48.128,48.128Z" style="fill-rule:nonzero;"/><path d="M637.419,502.239c0,-22.625 -18.342,-40.967 -40.967,-40.967c22.625,0 40.967,-18.341 40.967,-40.967c0,22.626 18.342,40.967 40.967,40.967c-22.625,0 -40.967,18.342 -40.967,40.967Z" style="fill-rule:nonzero;"/><path d="M546.325,403.984c0,-18.67 -15.135,-33.806 -33.806,-33.806c18.671,0 33.806,-15.135 33.806,-33.806c0,18.671 15.136,33.806 33.806,33.806c-18.67,0 -33.806,15.136 -33.806,33.806Z" style="fill-rule:nonzero;"/><path d="M637.419,305.73c0,-14.716 -11.93,-26.645 -26.646,-26.645c14.716,-0 26.646,-11.93 26.646,-26.646c0,14.716 11.93,26.646 26.645,26.646c-14.715,-0 -26.645,11.929 -26.645,26.645Z" style="fill-rule:nonzero;"/><path d="M546.325,207.475c0,-10.761 -8.723,-19.484 -19.484,-19.484c10.761,-0 19.484,-8.724 19.484,-19.485c0,10.761 8.723,19.485 19.485,19.485c-10.762,-0 -19.485,8.723 -19.485,19.484Z" style="fill-rule:nonzero;"/><path d="M637.419,109.22c0,-6.806 -5.517,-12.323 -12.324,-12.323c6.807,-0 12.324,-5.518 12.324,-12.324c0,6.806 5.517,12.324 12.323,12.324c-6.806,-0 -12.323,5.517 -12.323,12.323Z" style="fill-rule:nonzero;"/><path d="M546.325,10.965c0,-2.851 -2.311,-5.162 -5.162,-5.162c2.851,-0 5.162,-2.311 5.162,-5.163c0,2.852 2.311,5.163 5.163,5.163c-2.852,-0 -5.163,2.311 -5.163,5.162Z" style="fill-rule:nonzero;"/><path d="M728.513,993.513c-0,-42.4 -34.372,-76.772 -76.772,-76.772c42.4,-0 76.772,-34.372 76.772,-76.772c-0,42.4 34.372,76.772 76.772,76.772c-42.4,-0 -76.772,34.372 -76.772,76.772Z" style="fill-rule:nonzero;"/><path d="M819.606,895.258c0,-38.445 -31.165,-69.611 -69.61,-69.611c38.445,0 69.61,-31.166 69.61,-69.611c0,38.445 31.166,69.611 69.611,69.611c-38.445,0 -69.611,31.166 -69.611,69.611Z" style="fill-rule:nonzero;"/><path d="M728.513,797.004c-0,-34.491 -27.96,-62.451 -62.45,-62.451c34.49,0 62.45,-27.96 62.45,-62.45c-0,34.49 27.959,62.45 62.45,62.45c-34.491,0 -62.45,27.96 -62.45,62.451Z" style="fill-rule:nonzero;"/><path d="M819.606,698.749c0,-30.536 -24.753,-55.289 -55.289,-55.289c30.536,-0 55.289,-24.754 55.289,-55.289c0,30.535 24.754,55.289 55.289,55.289c-30.535,-0 -55.289,24.753 -55.289,55.289Z" style="fill-rule:nonzero;"/><path d="M728.513,600.494c-0,-26.58 -21.548,-48.128 -48.128,-48.128c26.58,0 48.128,-21.548 48.128,-48.128c-0,26.58 21.548,48.128 48.128,48.128c-26.58,0 -48.128,21.548 -48.128,48.128Z" style="fill-rule:nonzero;"/><path d="M819.606,502.239c0,-22.625 -18.341,-40.967 -40.967,-40.967c22.626,0 40.967,-18.341 40.967,-40.967c0,22.626 18.342,40.967 40.968,40.967c-22.626,0 -40.968,18.342 -40.968,40.967Z" style="fill-rule:nonzero;"/><path d="M728.513,403.984c-0,-18.67 -15.136,-33.806 -33.806,-33.806c18.67,0 33.806,-15.135 33.806,-33.806c-0,18.671 15.135,33.806 33.806,33.806c-18.671,0 -33.806,15.136 -33.806,33.806Z" style="fill-rule:nonzero;"/><path d="M819.606,305.73c0,-14.716 -11.929,-26.645 -26.645,-26.645c14.716,-0 26.645,-11.93 26.645,-26.646c0,14.716 11.93,26.646 26.646,26.646c-14.716,-0 -26.646,11.929 -26.646,26.645Z" style="fill-rule:nonzero;"/><path d="M728.513,207.475c-0,-10.761 -8.724,-19.484 -19.485,-19.484c10.761,-0 19.485,-8.724 19.485,-19.485c-0,10.761 8.723,19.485 19.484,19.485c-10.761,-0 -19.484,8.723 -19.484,19.484Z" style="fill-rule:nonzero;"/><path d="M819.606,109.22c0,-6.806 -5.517,-12.323 -12.323,-12.323c6.806,-0 12.323,-5.518 12.323,-12.324c0,6.806 5.518,12.324 12.324,12.324c-6.806,-0 -12.324,5.517 -12.324,12.323Z" style="fill-rule:nonzero;"/><path d="M728.513,10.965c-0,-2.851 -2.312,-5.162 -5.163,-5.162c2.851,-0 5.163,-2.311 5.163,-5.163c-0,2.852 2.311,5.163 5.162,5.163c-2.851,-0 -5.162,2.311 -5.162,5.162Z" style="fill-rule:nonzero;"/><path d="M910.7,993.513c0,-42.4 -34.372,-76.772 -76.772,-76.772c42.4,-0 76.772,-34.372 76.772,-76.772c0,42.4 34.372,76.772 76.772,76.772c-42.4,-0 -76.772,34.372 -76.772,76.772Z" style="fill-rule:nonzero;"/><path d="M1001.79,895.258c0,-38.445 -31.166,-69.611 -69.611,-69.611c38.445,0 69.611,-31.166 69.611,-69.611c0,38.445 31.166,69.611 69.611,69.611c-38.445,0 -69.611,31.166 -69.611,69.611Z" style="fill-rule:nonzero;"/><path d="M910.7,797.004c0,-34.491 -27.96,-62.451 -62.45,-62.451c34.49,0 62.45,-27.96 62.45,-62.45c0,34.49 27.96,62.45 62.451,62.45c-34.491,0 -62.451,27.96 -62.451,62.451Z" style="fill-rule:nonzero;"/><path d="M1001.79,698.749c0,-30.536 -24.754,-55.289 -55.289,-55.289c30.535,-0 55.289,-24.754 55.289,-55.289c0,30.535 24.754,55.289 55.289,55.289c-30.535,-0 -55.289,24.753 -55.289,55.289Z" style="fill-rule:nonzero;"/><path d="M910.7,600.494c0,-26.58 -21.547,-48.128 -48.128,-48.128c26.581,0 48.128,-21.548 48.128,-48.128c0,26.58 21.548,48.128 48.129,48.128c-26.581,0 -48.129,21.548 -48.129,48.128Z" style="fill-rule:nonzero;"/><path d="M1001.79,502.239c0,-22.625 -18.342,-40.967 -40.967,-40.967c22.625,0 40.967,-18.341 40.967,-40.967c0,22.626 18.342,40.967 40.967,40.967c-22.625,0 -40.967,18.342 -40.967,40.967Z" style="fill-rule:nonzero;"/><path d="M910.7,403.984c0,-18.67 -15.135,-33.806 -33.806,-33.806c18.671,0 33.806,-15.135 33.806,-33.806c0,18.671 15.136,33.806 33.807,33.806c-18.671,0 -33.807,15.136 -33.807,33.806Z" style="fill-rule:nonzero;"/><path d="M1001.79,305.73c0,-14.716 -11.929,-26.645 -26.645,-26.645c14.716,-0 26.645,-11.93 26.645,-26.646c0,14.716 11.93,26.646 26.645,26.646c-14.715,-0 -26.645,11.929 -26.645,26.645Z" style="fill-rule:nonzero;"/><path d="M910.7,207.475c0,-10.761 -8.723,-19.484 -19.484,-19.484c10.761,-0 19.484,-8.724 19.484,-19.485c0,10.761 8.724,19.485 19.485,19.485c-10.761,-0 -19.485,8.723 -19.485,19.484Z" style="fill-rule:nonzero;"/><path d="M1001.79,109.22c0,-6.806 -5.517,-12.323 -12.323,-12.323c6.806,-0 12.323,-5.518 12.323,-12.324c0,6.806 5.517,12.324 12.324,12.324c-6.807,-0 -12.324,5.517 -12.324,12.323Z" style="fill-rule:nonzero;"/><path d="M910.7,10.965c0,-2.851 -2.311,-5.162 -5.162,-5.162c2.851,-0 5.162,-2.311 5.162,-5.163c0,2.852 2.312,5.163 5.163,5.163c-2.851,-0 -5.163,2.311 -5.163,5.162Z" style="fill-rule:nonzero;"/><path d="M1092.89,993.513c0,-42.4 -34.372,-76.772 -76.772,-76.772c42.4,-0 76.772,-34.372 76.772,-76.772c0,42.4 34.372,76.772 76.772,76.772c-42.4,-0 -76.772,34.372 -76.772,76.772Z" style="fill-rule:nonzero;"/><path d="M1183.98,895.258c-0,-38.445 -31.166,-69.611 -69.611,-69.611c38.445,0 69.611,-31.166 69.611,-69.611c-0,38.445 31.166,69.611 69.611,69.611c-38.445,0 -69.611,31.166 -69.611,69.611Z" style="fill-rule:nonzero;"/><path d="M1092.89,797.004c0,-34.491 -27.96,-62.451 -62.45,-62.451c34.49,0 62.45,-27.96 62.45,-62.45c0,34.49 27.96,62.45 62.45,62.45c-34.49,0 -62.45,27.96 -62.45,62.451Z" style="fill-rule:nonzero;"/><path d="M1183.98,698.749c-0,-30.536 -24.754,-55.289 -55.289,-55.289c30.535,-0 55.289,-24.754 55.289,-55.289c-0,30.535 24.754,55.289 55.289,55.289c-30.535,-0 -55.289,24.753 -55.289,55.289Z" style="fill-rule:nonzero;"/><path d="M1092.89,600.494c0,-26.58 -21.548,-48.128 -48.128,-48.128c26.58,0 48.128,-21.548 48.128,-48.128c0,26.58 21.547,48.128 48.128,48.128c-26.581,0 -48.128,21.548 -48.128,48.128Z" style="fill-rule:nonzero;"/><path d="M1183.98,502.239c-0,-22.625 -18.342,-40.967 -40.967,-40.967c22.625,0 40.967,-18.341 40.967,-40.967c-0,22.626 18.342,40.967 40.967,40.967c-22.625,0 -40.967,18.342 -40.967,40.967Z" style="fill-rule:nonzero;"/><path d="M1092.89,403.984c0,-18.67 -15.136,-33.806 -33.806,-33.806c18.67,0 33.806,-15.135 33.806,-33.806c0,18.671 15.136,33.806 33.806,33.806c-18.67,0 -33.806,15.136 -33.806,33.806Z" style="fill-rule:nonzero;"/><path d="M1183.98,305.73c-0,-14.716 -11.93,-26.645 -26.646,-26.645c14.716,-0 26.646,-11.93 26.646,-26.646c-0,14.716 11.93,26.646 26.645,26.646c-14.715,-0 -26.645,11.929 -26.645,26.645Z" style="fill-rule:nonzero;"/><path d="M1092.89,207.475c0,-10.761 -8.724,-19.484 -19.484,-19.484c10.76,-0 19.484,-8.724 19.484,-19.485c0,10.761 8.723,19.485 19.484,19.485c-10.761,-0 -19.484,8.723 -19.484,19.484Z" style="fill-rule:nonzero;"/><path d="M1183.98,109.22c-0,-6.806 -5.517,-12.323 -12.324,-12.323c6.807,-0 12.324,-5.518 12.324,-12.324c-0,6.806 5.517,12.324 12.323,12.324c-6.806,-0 -12.323,5.517 -12.323,12.323Z" style="fill-rule:nonzero;"/><path d="M1092.89,10.965c0,-2.851 -2.311,-5.162 -5.163,-5.162c2.852,-0 5.163,-2.311 5.163,-5.163c0,2.852 2.311,5.163 5.162,5.163c-2.851,-0 -5.162,2.311 -5.162,5.162Z" style="fill-rule:nonzero;"/><path d="M1275.08,993.513c-0,-42.4 -34.372,-76.772 -76.772,-76.772c42.4,-0 76.772,-34.372 76.772,-76.772c-0,42.4 34.372,76.772 76.772,76.772c-42.4,-0 -76.772,34.372 -76.772,76.772Z" style="fill-rule:nonzero;"/><path d="M1366.17,895.258c-0,-38.445 -31.166,-69.611 -69.612,-69.611c38.446,0 69.612,-31.166 69.612,-69.611c-0,38.445 31.165,69.611 69.611,69.611c-38.446,0 -69.611,31.166 -69.611,69.611Z" style="fill-rule:nonzero;"/><path d="M1275.08,797.004c-0,-34.491 -27.96,-62.451 -62.45,-62.451c34.49,0 62.45,-27.96 62.45,-62.45c-0,34.49 27.96,62.45 62.45,62.45c-34.49,0 -62.45,27.96 -62.45,62.451Z" style="fill-rule:nonzero;"/><path d="M1366.17,698.749c-0,-30.536 -24.754,-55.289 -55.29,-55.289c30.536,-0 55.29,-24.754 55.29,-55.289c-0,30.535 24.753,55.289 55.289,55.289c-30.536,-0 -55.289,24.753 -55.289,55.289Z" style="fill-rule:nonzero;"/><path d="M1275.08,600.494c-0,-26.58 -21.548,-48.128 -48.128,-48.128c26.58,0 48.128,-21.548 48.128,-48.128c-0,26.58 21.547,48.128 48.128,48.128c-26.581,0 -48.128,21.548 -48.128,48.128Z" style="fill-rule:nonzero;"/><path d="M1366.17,502.239c-0,-22.625 -18.342,-40.967 -40.968,-40.967c22.626,0 40.968,-18.341 40.968,-40.967c-0,22.626 18.341,40.967 40.967,40.967c-22.626,0 -40.967,18.342 -40.967,40.967Z" style="fill-rule:nonzero;"/><path d="M1275.08,403.984c-0,-18.67 -15.136,-33.806 -33.807,-33.806c18.671,0 33.807,-15.135 33.807,-33.806c-0,18.671 15.135,33.806 33.806,33.806c-18.671,0 -33.806,15.136 -33.806,33.806Z" style="fill-rule:nonzero;"/><path d="M1366.17,305.73c-0,-14.716 -11.93,-26.645 -26.646,-26.645c14.716,-0 26.646,-11.93 26.646,-26.646c-0,14.716 11.929,26.646 26.645,26.646c-14.716,-0 -26.645,11.929 -26.645,26.645Z" style="fill-rule:nonzero;"/><path d="M1275.08,207.475c-0,-10.761 -8.724,-19.484 -19.485,-19.484c10.761,-0 19.485,-8.724 19.485,-19.485c-0,10.761 8.723,19.485 19.484,19.485c-10.761,-0 -19.484,8.723 -19.484,19.484Z" style="fill-rule:nonzero;"/><path d="M1366.17,109.22c-0,-6.806 -5.518,-12.323 -12.324,-12.323c6.806,-0 12.324,-5.518 12.324,-12.324c-0,6.806 5.517,12.324 12.323,12.324c-6.806,-0 -12.323,5.517 -12.323,12.323Z" style="fill-rule:nonzero;"/><path d="M1275.08,10.965c-0,-2.851 -2.312,-5.162 -5.163,-5.162c2.851,-0 5.163,-2.311 5.163,-5.163c-0,2.852 2.311,5.163 5.162,5.163c-2.851,-0 -5.162,2.311 -5.162,5.162Z" style="fill-rule:nonzero;"/><path d="M1457.26,993.513c0,-42.4 -34.371,-76.772 -76.771,-76.772c42.4,-0 76.771,-34.372 76.771,-76.772c0,42.4 34.373,76.772 76.773,76.772c-42.4,-0 -76.773,34.372 -76.773,76.772Z" style="fill-rule:nonzero;"/><path d="M1548.36,895.258c0,-38.445 -31.166,-69.611 -69.611,-69.611c38.445,0 69.611,-31.166 69.611,-69.611c0,38.445 31.166,69.611 69.611,69.611c-38.445,0 -69.611,31.166 -69.611,69.611Z" style="fill-rule:nonzero;"/><path d="M1457.26,797.004c0,-34.491 -27.96,-62.451 -62.45,-62.451c34.49,0 62.45,-27.96 62.45,-62.45c0,34.49 27.96,62.45 62.45,62.45c-34.49,0 -62.45,27.96 -62.45,62.451Z" style="fill-rule:nonzero;"/><path d="M1548.36,698.749c0,-30.536 -24.754,-55.289 -55.289,-55.289c30.535,-0 55.289,-24.754 55.289,-55.289c0,30.535 24.754,55.289 55.29,55.289c-30.536,-0 -55.29,24.753 -55.29,55.289Z" style="fill-rule:nonzero;"/><path d="M1457.26,600.494c0,-26.58 -21.547,-48.128 -48.128,-48.128c26.581,0 48.128,-21.548 48.128,-48.128c0,26.58 21.548,48.128 48.128,48.128c-26.58,0 -48.128,21.548 -48.128,48.128Z" style="fill-rule:nonzero;"/><path d="M1548.36,502.239c0,-22.625 -18.341,-40.967 -40.967,-40.967c22.626,0 40.967,-18.341 40.967,-40.967c0,22.626 18.342,40.967 40.968,40.967c-22.626,0 -40.968,18.342 -40.968,40.967Z" style="fill-rule:nonzero;"/><path d="M1457.26,403.984c0,-18.67 -15.135,-33.806 -33.806,-33.806c18.671,0 33.806,-15.135 33.806,-33.806c0,18.671 15.136,33.806 33.807,33.806c-18.671,0 -33.807,15.136 -33.807,33.806Z" style="fill-rule:nonzero;"/><path d="M1548.36,305.73c0,-14.716 -11.929,-26.645 -26.645,-26.645c14.716,-0 26.645,-11.93 26.645,-26.646c0,14.716 11.93,26.646 26.646,26.646c-14.716,-0 -26.646,11.929 -26.646,26.645Z" style="fill-rule:nonzero;"/><path d="M1457.26,207.475c0,-10.761 -8.723,-19.484 -19.484,-19.484c10.761,-0 19.484,-8.724 19.484,-19.485c0,10.761 8.724,19.485 19.485,19.485c-10.761,-0 -19.485,8.723 -19.485,19.484Z" style="fill-rule:nonzero;"/><path d="M1548.36,109.22c0,-6.806 -5.517,-12.323 -12.323,-12.323c6.806,-0 12.323,-5.518 12.323,-12.324c0,6.806 5.518,12.324 12.324,12.324c-6.806,-0 -12.324,5.517 -12.324,12.323Z" style="fill-rule:nonzero;"/><path d="M1457.26,10.965c0,-2.851 -2.311,-5.162 -5.162,-5.162c2.851,-0 5.162,-2.311 5.162,-5.163c0,2.852 2.312,5.163 5.163,5.163c-2.851,-0 -5.163,2.311 -5.163,5.162Z" style="fill-rule:nonzero;"/><path d="M-0.238,0.64l-0,10.325c-0,-2.851 2.311,-5.162 5.162,-5.162c-2.851,-0 -5.162,-2.311 -5.162,-5.163Z" style="fill-rule:nonzero;"/><path d="M-5.401,5.803c2.852,-0 5.163,2.311 5.163,5.162l-0,-10.325c-0,2.852 -2.311,5.163 -5.163,5.163Z" style="fill-rule:nonzero;"/><path d="M1634.29,5.803c2.851,-0 5.162,2.311 5.162,5.162l0,-10.325c0,2.852 -2.311,5.163 -5.162,5.163Z" style="fill-rule:nonzero;"/><path d="M1639.45,504.238c0,26.58 -21.548,48.128 -48.128,48.128c26.58,0 48.128,21.548 48.128,48.128l0,-96.256Z" style="fill-rule:nonzero;"/><path d="M1639.45,336.372c0,18.671 -15.135,33.806 -33.806,33.806c18.671,0 33.806,15.136 33.806,33.806l0,-67.612Z" style="fill-rule:nonzero;"/><path d="M-19.723,187.991c10.762,-0 19.485,8.723 19.485,19.484l-0,-38.969c-0,10.761 -8.723,19.485 -19.485,19.485Z" style="fill-rule:nonzero;"/><path d="M1619.97,187.991c10.761,-0 19.484,8.723 19.484,19.484l0,-38.969c0,10.761 -8.723,19.485 -19.484,19.485Z" style="fill-rule:nonzero;"/><path d="M1639.45,993.513l0,-153.544c0,42.4 -34.372,76.772 -76.772,76.772c42.4,-0 76.772,34.372 76.772,76.772Z" style="fill-rule:nonzero;"/><path d="M1577,734.553c34.49,0 62.45,27.96 62.45,62.451l0,-124.901c0,34.49 -27.96,62.45 -62.45,62.45Z" style="fill-rule:nonzero;"/><path d="M47.89,552.366c-26.58,0 -48.128,-21.548 -48.128,-48.128l-0,96.256c-0,-26.58 21.548,-48.128 48.128,-48.128Z" style="fill-rule:nonzero;"/><path d="M62.212,734.553c-34.49,0 -62.45,-27.96 -62.45,-62.45l-0,124.901c-0,-34.491 27.96,-62.451 62.45,-62.451Z" style="fill-rule:nonzero;"/><path d="M-0.238,993.513c-0,-42.4 34.372,-76.772 76.772,-76.772c-42.4,-0 -76.772,-34.372 -76.772,-76.772l-0,153.544Z" style="fill-rule:nonzero;"/><path d="M-0.238,168.506l-0,38.969c-0,-10.761 8.723,-19.484 19.484,-19.484c-10.761,-0 -19.484,-8.724 -19.484,-19.485Z" style="fill-rule:nonzero;"/><path d="M33.568,370.178c-18.671,0 -33.806,-15.135 -33.806,-33.806l-0,67.612c-0,-18.67 15.135,-33.806 33.806,-33.806Z" style="fill-rule:nonzero;"/></g></svg>